<svg id="Layer_1" data-name="Layer 1" xmlns="http://www.w3.org/2000/svg" viewBox="0 0 524.59 575.05"><defs><style>.cls-1,.cls-3,.cls-4,.cls-5{fill:#fbc926;}.cls-2{fill:none;stroke:#000;stroke-width:5px;}.cls-3{font-size:85.56px;}.cls-3,.cls-4{font-family:TimesNewRomanPSMT, Times New Roman;}.cls-4{font-size:77px;}.cls-5{font-size:14px;font-family:TimesNewRomanPS-BoldMT, Times New Roman;font-weight:700;}.cls-6{letter-spacing:0.01em;}.cls-7{letter-spacing:0.02em;}.cls-8{letter-spacing:-0.03em;}.cls-9{letter-spacing:-0.01em;}.cls-10{letter-spacing:0em;}.cls-11{letter-spacing:0.03em;}.cls-12{letter-spacing:0em;}.cls-13{letter-spacing:-0.02em;}.cls-14{letter-spacing:0.01em;}.cls-15{letter-spacing:-0.06em;}.cls-16{letter-spacing:0.02em;}.cls-17{letter-spacing:0.02em;}.cls-18{letter-spacing:-0.02em;}.cls-19{letter-spacing:-0.02em;}</style></defs><title>Artboard 4</title><rect x="1.16" y="1.41" width="523.68" height="572.03"/><path class="cls-1" d="M380.06,152.58c4.66,10.71.6,23.16-7.2,28.32-7.22,4.77-17.57,4.08-23.52-.48-7.16-5.48-10.58-16-7.68-25.44,2.17-7,8.56-14.4,18.72-14.88C369.06,139.69,377.46,146.61,380.06,152.58Z"/><path class="cls-1" d="M361.34,192.66c4.55,2.16,3,8,2.88,12.48-.49,15.75-.7,31-2.16,44.88-3.88,37-11,70.86-23.28,100.8-18,43.8-48.74,78.55-93.6,96-22.62,8.8-49.66,13.92-81.36,13.68-9-.07-17.82-.5-27.12-1.44,32.48-11.29,56.89-30.13,70.32-60.72,38.32-12.39,70.93-27.5,93.6-55.68a183.62,183.62,0,0,0,27.84-46.8,309.24,309.24,0,0,0,17-56.16c-2.24.93-3.28,3.13-4.8,4.8a107.6,107.6,0,0,1-41.28,27.84c-19.27,7.24-46.23,8.57-68.4,2.64-39.65-10.6-69-36.49-85.2-73-8.39-18.85-10.1-43-9.36-64.08A125,125,0,0,1,154.22,77.7C169.1,53.46,190.45,34.85,220,25.14a117.28,117.28,0,0,1,15.36-4.32,150.91,150.91,0,0,1,17.28-2.4,98.25,98.25,0,0,1,46.8,8.4c13.29,6,24,13.54,32.88,23,15.43,16.54,26.14,39.56,30.72,67.2.59,3.55,2.48,7.91-.24,11.28-3.68-.93-5.06-4.3-7-7.2-3.4-5.2-6-12.38-8.88-18A124.47,124.47,0,0,0,328.46,77C317.94,65.34,304,57,286.94,51.54c-11.23-3.59-25.61-4.07-39.12-1.44C224.14,54.71,207,68.32,193.58,84.9c-12.77,15.81-21.13,39.88-21.6,66a104.18,104.18,0,0,0,22.08,66.24,90.68,90.68,0,0,0,23.52,21.12c9.27,5.9,19.11,11.06,31,13.44,13.52,2.71,27.31,3.52,39.84,1,21.11-4.32,36.47-15.28,49.44-28.08,1.9-1.87,3.22-3.91,5-6s3.85-3.8,5.28-6c2.85-4.37,5.58-9.08,8.16-13.92C357.45,196.5,358.52,193.51,361.34,192.66Z"/><path class="cls-2" d="M360.38,140.1c8.68-.41,17.08,6.51,19.68,12.48,4.66,10.71.6,23.16-7.2,28.32-7.22,4.77-17.57,4.08-23.52-.48-7.16-5.48-10.58-16-7.68-25.44C343.83,148,350.22,140.58,360.38,140.1Z"/><path class="cls-2" d="M362.78,128.34c-3.68-.93-5.06-4.3-7-7.2-3.4-5.2-6-12.38-8.88-18A124.47,124.47,0,0,0,328.46,77C317.94,65.34,304,57,286.94,51.54c-11.23-3.59-25.61-4.07-39.12-1.44C224.14,54.71,207,68.32,193.58,84.9c-12.77,15.81-21.13,39.88-21.6,66a104.18,104.18,0,0,0,22.08,66.24,90.68,90.68,0,0,0,23.52,21.12c9.27,5.9,19.11,11.06,31,13.44,13.52,2.71,27.31,3.52,39.84,1,21.11-4.32,36.47-15.28,49.44-28.08,1.9-1.87,3.22-3.91,5-6s3.85-3.8,5.28-6c2.85-4.37,5.58-9.08,8.16-13.92,1.15-2.16,2.22-5.15,5-6,4.55,2.16,3,8,2.88,12.48-.49,15.75-.7,31-2.16,44.88-3.88,37-11,70.86-23.28,100.8-18,43.8-48.74,78.55-93.6,96-22.62,8.8-49.66,13.92-81.36,13.68-9-.07-17.82-.5-27.12-1.44,32.48-11.29,56.89-30.13,70.32-60.72,38.32-12.39,70.93-27.5,93.6-55.68a183.62,183.62,0,0,0,27.84-46.8,309.24,309.24,0,0,0,17-56.16c-2.24.93-3.28,3.13-4.8,4.8a107.6,107.6,0,0,1-41.28,27.84c-19.27,7.24-46.23,8.57-68.4,2.64-39.65-10.6-69-36.49-85.2-73-8.39-18.85-10.1-43-9.36-64.08A125,125,0,0,1,154.22,77.7C169.1,53.46,190.45,34.85,220,25.14a117.28,117.28,0,0,1,15.36-4.32,150.91,150.91,0,0,1,17.28-2.4,98.25,98.25,0,0,1,46.8,8.4c13.29,6,24,13.54,32.88,23,15.43,16.54,26.14,39.56,30.72,67.2C363.61,120.61,365.5,125,362.78,128.34Z"/><text class="cls-3" transform="translate(183.71 546.45) scale(0.68 0.7)">ENESI</text><text class="cls-4" transform="translate(345.01 559.66)">S</text><text class="cls-5" transform="translate(183.88 560) scale(0.85 1)"><tspan class="cls-6">T</tspan><tspan class="cls-7" x="9.47" y="0">H</tspan><tspan x="20.62" y="0">E </tspan><tspan class="cls-8" x="33.45" y="0">R</tspan><tspan class="cls-9" x="43.19" y="0">O</tspan><tspan class="cls-10" x="53.88" y="0">L</tspan><tspan class="cls-11" x="63.2" y="0">E</tspan><tspan class="cls-12" x="72.95" y="0">-</tspan><tspan class="cls-13" x="77.66" y="0">P</tspan><tspan class="cls-14" x="85.87" y="0">L</tspan><tspan class="cls-15" x="95.28" y="0">A</tspan><tspan class="cls-16" x="104.62" y="0">Y</tspan><tspan class="cls-17" x="115.04" y="0">I</tspan><tspan class="cls-18" x="120.76" y="0">N</tspan><tspan x="130.59" y="0">G </tspan><tspan class="cls-19" x="144.98" y="0">G</tspan><tspan class="cls-16" x="155.65" y="0">A</tspan><tspan class="cls-7" x="166.06" y="0">M</tspan><tspan x="179.53" y="0">E</tspan></text><text class="cls-4" transform="translate(130.45 559.66)">G</text></svg>