<svg id="Layer_1" data-name="Layer 1" xmlns="http://www.w3.org/2000/svg" xmlns:xlink="http://www.w3.org/1999/xlink" viewBox="0 0 3240 162"><defs><style>.cls-1{fill:url(#linear-gradient);}.cls-2,.cls-4{fill:#fff;}.cls-3,.cls-6{fill:none;}.cls-3{stroke:#000;stroke-width:3px;}.cls-4{stroke:#fff;stroke-width:5px;}.cls-5{fill:url(#linear-gradient-2);}</style><linearGradient id="linear-gradient" x1="2982.7" y1="82" x2="4470.5" y2="82" gradientTransform="translate(4472 162) rotate(180)" gradientUnits="userSpaceOnUse"><stop offset="0" stop-color="#fff"/><stop offset="1"/></linearGradient><linearGradient id="linear-gradient-2" x1="1750.7" y1="80" x2="3238.5" y2="80" gradientTransform="matrix(1, 0, 0, 1, 0, 0)" xlink:href="#linear-gradient"/></defs><title>Artboard 1</title><rect class="cls-1" x="1.5" y="46.5" width="1487.8" height="67"/><path d="M1487.8,48v64H3V48H1487.8m3-3H0v70H1490.8V45Z"/><path class="cls-2" d="M1663.35,52.53c1.53,3.53.2,7.63-2.37,9.33a7.08,7.08,0,0,1-7.75-.16,7.86,7.86,0,0,1-2.53-8.38,6.83,6.83,0,0,1,6.17-4.9A7.43,7.43,0,0,1,1663.35,52.53Z"/><path class="cls-2" d="M1657.18,65.73c1.5.71,1,2.64,1,4.11-.16,5.19-.23,10.21-.71,14.79-1.28,12.18-3.62,23.33-7.67,33.2-5.92,14.42-16,25.87-30.83,31.61a71.94,71.94,0,0,1-26.79,4.51c-3,0-5.87-.16-8.94-.47,10.7-3.72,18.74-9.93,23.17-20,12.62-4.08,23.36-9.06,30.82-18.34a60.29,60.29,0,0,0,9.17-15.42A101.86,101.86,0,0,0,1652,81.23c-.74.3-1.08,1-1.58,1.58a35.64,35.64,0,0,1-13.6,9.17,39.63,39.63,0,0,1-22.53.87,41.74,41.74,0,0,1-28.06-24c-2.76-6.21-3.33-14.15-3.08-21.11A41.11,41.11,0,0,1,1589,27.87a39.23,39.23,0,0,1,21.65-17.31,37.74,37.74,0,0,1,5.06-1.42,48.74,48.74,0,0,1,5.69-.8,32.48,32.48,0,0,1,15.42,2.77,33.21,33.21,0,0,1,10.83,7.59c5.08,5.45,8.61,13,10.12,22.13.19,1.17.81,2.61-.08,3.72-1.21-.31-1.67-1.42-2.29-2.37-1.12-1.72-2-4.08-2.93-5.93a40.77,40.77,0,0,0-6.09-8.62,30.41,30.41,0,0,0-13.67-8.38,27.06,27.06,0,0,0-12.89-.47c-7.8,1.52-13.45,6-17.86,11.46-4.21,5.21-7,13.14-7.12,21.74a34.34,34.34,0,0,0,7.28,21.82,29.69,29.69,0,0,0,7.74,7,29.72,29.72,0,0,0,10.2,4.43,33.46,33.46,0,0,0,13.12.31c7-1.42,12-5,16.29-9.24.62-.62,1.06-1.29,1.66-2a21.08,21.08,0,0,0,1.74-2c.93-1.44,1.83-3,2.68-4.58C1655.9,67,1656.25,66,1657.18,65.73Z"/><path class="cls-3" d="M1656.87,48.42a7.43,7.43,0,0,1,6.48,4.11c1.53,3.53.2,7.63-2.37,9.33a7.08,7.08,0,0,1-7.75-.16,7.86,7.86,0,0,1-2.53-8.38A6.83,6.83,0,0,1,1656.87,48.42Z"/><path class="cls-3" d="M1657.66,44.55c-1.21-.31-1.67-1.42-2.29-2.37-1.12-1.72-2-4.08-2.93-5.93a40.77,40.77,0,0,0-6.09-8.62,30.41,30.41,0,0,0-13.67-8.38,27.06,27.06,0,0,0-12.89-.47c-7.8,1.52-13.45,6-17.86,11.46-4.21,5.21-7,13.14-7.12,21.74a34.34,34.34,0,0,0,7.28,21.82,29.69,29.69,0,0,0,7.74,7,29.72,29.72,0,0,0,10.2,4.43,33.46,33.46,0,0,0,13.12.31c7-1.42,12-5,16.29-9.24.62-.62,1.06-1.29,1.66-2a21.08,21.08,0,0,0,1.74-2c.93-1.44,1.83-3,2.68-4.58.38-.71.73-1.7,1.66-2,1.5.71,1,2.64,1,4.11-.16,5.19-.23,10.21-.71,14.79-1.28,12.18-3.62,23.33-7.67,33.2-5.92,14.42-16,25.87-30.83,31.61a71.94,71.94,0,0,1-26.79,4.51c-3,0-5.87-.16-8.94-.47,10.7-3.72,18.74-9.93,23.17-20,12.62-4.08,23.36-9.06,30.82-18.34a60.29,60.29,0,0,0,9.17-15.42A101.86,101.86,0,0,0,1652,81.23c-.74.3-1.08,1-1.58,1.58a35.64,35.64,0,0,1-13.6,9.17,39.63,39.63,0,0,1-22.53.87,41.74,41.74,0,0,1-28.06-24c-2.76-6.21-3.33-14.15-3.08-21.11A41.11,41.11,0,0,1,1589,27.87a39.23,39.23,0,0,1,21.65-17.31,37.74,37.74,0,0,1,5.06-1.42,48.74,48.74,0,0,1,5.69-.8,32.48,32.48,0,0,1,15.42,2.77,33.21,33.21,0,0,1,10.83,7.59c5.08,5.45,8.61,13,10.12,22.13C1657.93,42,1658.55,43.44,1657.66,44.55Z"/><line class="cls-4" x1="2335.57" y1="157.5" x2="2585.1" y2="157.5"/><rect class="cls-5" x="1750.7" y="46.5" width="1487.8" height="67"/><path d="M3237,48v64H1752.2V48H3237m3-3H1749.2v70H3240V45Z"/><rect id="_Slice_" data-name="&lt;Slice&gt;" class="cls-6" x="1934" y="-2" width="1307" height="164"/><rect id="_Slice_2" data-name="&lt;Slice&gt;" class="cls-6" y="-2" width="3240" height="164"/></svg>